HIERARCHY
ROOT Hips
{
  OFFSET 57.8838 95.319 338.509
  CHANNELS 6 Xposition Yposition Zposition Zrotation Xrotation Yrotation
  JOINT LeftUpLeg
  {
    OFFSET 8.64259 1.95398 -2.38835
    CHANNELS 3 Zrotation Xrotation Yrotation
    JOINT LeftLeg
    {
      OFFSET 43.7702 0 0
      CHANNELS 3 Zrotation Xrotation Yrotation
      JOINT LeftFoot
      {
        OFFSET 40.6238 0 0
        CHANNELS 3 Zrotation Xrotation Yrotation
        JOINT LeftToeBase
        {
          OFFSET 12.7242 0 0
          CHANNELS 3 Zrotation Xrotation Yrotation
          End Site
          {
            OFFSET 0 0 0
          }
        }
      }
    }
  }
  JOINT RightUpLeg
  {
    OFFSET -8.2249 1.95398 -2.59336
    CHANNELS 3 Zrotation Xrotation Yrotation
    JOINT RightLeg
    {
      OFFSET 43.5653 0 0
      CHANNELS 3 Zrotation Xrotation Yrotation
      JOINT RightFoot
      {
        OFFSET 40.6238 0 0
        CHANNELS 3 Zrotation Xrotation Yrotation
        JOINT RightToeBase
        {
          OFFSET 12.7242 0 0
          CHANNELS 3 Zrotation Xrotation Yrotation
          End Site
          {
            OFFSET 0 0 0
          }
        }
      }
    }
  }
  JOINT Spine
  {
    OFFSET 0.165834 0.87714 6.61349
    CHANNELS 3 Zrotation Xrotation Yrotation
    JOINT Spine1
    {
      OFFSET 7.38963 1.71661e-005 0
      CHANNELS 3 Zrotation Xrotation Yrotation
      JOINT Spine2
      {
        OFFSET 11.9445 1.14441e-005 0
        CHANNELS 3 Zrotation Xrotation Yrotation
        JOINT Spine3
        {
          OFFSET 14.7254 4.19617e-005 0
          CHANNELS 3 Zrotation Xrotation Yrotation
          JOINT Spine4
          {
            OFFSET 10.9679 0 0
            CHANNELS 3 Zrotation Xrotation Yrotation
            JOINT RightShoulder
            {
              OFFSET 2.46616 -1.6653 3.69651
              CHANNELS 3 Zrotation Xrotation Yrotation
              JOINT RightArm
              {
                OFFSET 13.0012 0 0
                CHANNELS 3 Zrotation Xrotation Yrotation
                JOINT RightForeArm
                {
                  OFFSET 28.7848 1.62311e-005 0
                  CHANNELS 3 Zrotation Xrotation Yrotation
                  JOINT RightHand
                  {
                    OFFSET 26.5688 1.62095e-005 0
                    CHANNELS 3 Zrotation Xrotation Yrotation
                    End Site
                    {
                      OFFSET 0 0 0
                    }
                  }
                }
              }
            }
            JOINT LeftShoulder
            {
              OFFSET 2.38034 -1.29275 -3.7523
              CHANNELS 3 Zrotation Xrotation Yrotation
              JOINT LeftArm
              {
                OFFSET 16.3182 6.07031e-005 0
                CHANNELS 3 Zrotation Xrotation Yrotation
                JOINT LeftForeArm
                {
                  OFFSET 27.0901 0 0
                  CHANNELS 3 Zrotation Xrotation Yrotation
                  JOINT LeftHand
                  {
                    OFFSET 24.5451 1.51738e-005 0
                    CHANNELS 3 Zrotation Xrotation Yrotation
                    End Site
                    {
                      OFFSET 0 0 0
                    }
                  }
                }
              }
            }
            JOINT Neck
            {
              OFFSET 5.0226 -0.0266342 0
              CHANNELS 3 Zrotation Xrotation Yrotation
              JOINT Head
              {
                OFFSET 6.69364 2.86102e-005 0
                CHANNELS 3 Zrotation Xrotation Yrotation
                End Site
                {
                  OFFSET 0 0 0
                }
              }
            }
          }
        }
      }
    }
  }
}
MOTION
Frames:	17
Frame Time:	0.0416667
-367.323 80.0982 -9.54152 37.7279 36.0886 111.639 -151.852 38.7889 104.764 3.22537 27.2524 -58.9406 30.8837 -26.6687 -17.5225 33.3444 -15.7951 126.937 156.583 72.3167 60.4276 -70.6178 -8.96097 21.7942 104.014 66.5765 -106.474 -88.3941 -56.3045 140.463 -1.94912 2.59761 -86.6925 21.6986 -1.95994 7.26098 10.0084 -1.63935 7.33961 -12.4076 -4.04745 6.34254 7.60508 -4.04745 6.34254 29.2381 -84.4058 -158.065 -9.45534 49.171 67.2903 -119.503 2.77207 -96.7151 -9.47395 4.1993 -56.0458 -84.7581 -37.9378 84.868 139.929 -13.7166 -113.83 -69.954 51.8479 -65.5249 102.905 9.11051 2.65975 -25.4545 -37.7027 -57.2553 161.718 11.0051 -13.5193 
-367.854 80.1374 -9.69836 37.681 35.8475 111.326 -151.296 38.7244 104.359 5.39644 28.5029 -60.6191 31.9739 -25.5973 -17.0336 33.5144 -12.781 126.47 155.95 72.2869 61.6658 -71.5042 -9.37517 21.3364 106.59 66.2916 -108.039 -87.8427 -55.8545 140.497 -2.00557 2.47261 -86.7562 21.9553 -2.09443 7.17622 10.2658 -1.77739 7.26082 -12.1565 -4.15046 6.2212 7.85619 -4.15046 6.22119 30.0916 -84.0503 -157.404 -10.8506 48.3183 68.0085 -127.107 3.9824 -96.0704 -7.83928 3.47138 -56.7819 -84.3711 -39.5717 85.7957 140.387 -13.125 -114.694 -76.2727 51.294 -60.3035 103.875 8.16946 1.82989 -25.0649 -37.5001 -55.7946 161.873 10.7304 -13.5232 
-369.452 80.2558 -10.1696 37.5521 35.1309 110.393 -149.707 38.3494 103.121 12.3459 31.8838 -65.7841 35.6804 -22.0591 -15.4846 34.0788 -5.23711 125.679 153.752 71.9084 65.7737 -73.9064 -10.4927 19.9472 114.019 65.2699 -112.385 -86.9355 -54.409 140.036 -2.17551 2.09513 -86.9669 22.7299 -2.51069 6.88877 11.0425 -2.20582 6.99191 -11.4004 -4.46175 5.82148 8.61226 -4.46175 5.82149 32.1825 -82.9321 -155.92 -14.7915 45.6024 69.8885 -145.929 6.83936 -94.2071 -4.54355 1.95953 -58.9487 -82.914 -44.505 88.8458 142.253 -11.2965 -117.073 -93.2514 47.2271 -46.3939 106.009 4.69787 -0.910352 -23.6024 -36.6916 -51.1261 162.296 10.0836 -13.4253 
-371.925 80.4375 -10.8945 37.3832 34.0481 108.973 -147.453 37.2166 101.041 23.8383 36.0207 -73.4955 42.641 -15.9259 -13.0339 34.9142 4.05614 126.341 149.995 70.4209 72.6884 -76.787 -11.8687 17.8223 124.415 63.2624 -117.962 -87.6006 -51.9008 137.852 -2.42704 1.51601 -87.3371 23.914 -3.16056 6.36443 12.2306 -2.87799 6.49666 -10.2474 -4.92491 5.12483 9.76531 -4.92492 5.12484 34.196 -81.1288 -154.894 -20.2497 41.098 72.0509 -165.395 9.80987 -92.1445 -2.78732 1.11163 -60.5271 -79.7496 -51.8948 94.2575 145.87 -8.19281 -120.436 -111.402 36.8391 -32.133 106.586 -1.41467 -5.31516 -20.4593 -34.5391 -43.2916 162.846 9.96005 -12.907 
-375.934 81.5665 -10.6437 165.247 36.1206 67.7335 -158.176 34.6375 -174.154 122.431 35.798 153.638 58.8948 -10.3062 1.50871 35.62 17.7806 129.876 125.648 -35.4545 45.3719 -71.8175 -15.4616 2.46863 131.67 61.2667 -122.283 -93.3563 -47.678 131.846 -1.92992 12.5696 -91.0353 1.41137 -4.21002 -0.657993 -10.2541 -4.23499 -0.471741 -32.8245 -3.81704 -1.89445 -12.8119 -3.81701 -1.89445 35.3386 -78.8307 -155.041 -26.4793 35.0631 73.7535 177.034 12.7068 -90.8619 -3.35756 0.89637 -58.0463 -74.0514 -60.3154 102.249 149.943 -3.11893 -124.91 -124.305 22.2568 -22.3451 103.074 -8.05981 -10.4503 -15.1328 -28.9366 -32.9295 163.418 12.491 -11.5048 
-380.764 79.8461 -11.6315 161.343 34.278 68.6606 -159.747 37.4094 -174.938 118.721 25.044 157.593 65.8876 2.44429 5.64832 37.2101 43.1042 129.543 122.034 -40.7884 50.0087 -76.0205 -16.7958 0.898288 143.166 57.0665 -125.492 -106.042 -40.6952 121.604 -2.98393 11.9929 -89.9229 2.88108 -5.92982 0.0855097 -8.77632 -5.92028 0.347336 -31.4142 -5.68045 -1.7065 -11.4016 -5.68043 -1.7065 35.2449 -76.4644 -156.52 -33.274 28.1035 74.5988 157.695 20.5954 -102.138 6.79056 5.89716 2.93183 -65.6209 -67.7626 112.395 151.516 5.24015 -130.759 -132.082 6.11384 -15.2669 96.2272 -13.3242 -15.7758 -8.75277 -15.9857 -22.7656 163.916 21.4601 -8.81905 
-387.211 77.1277 -12.7111 164.841 31.4325 67.4928 -160.039 38.047 -172.861 112.975 15.5352 155.915 70.1278 14.0798 7.57102 59.6158 72.2177 101.898 111.024 -47.8574 41.6659 -79.1089 -18.1459 -1.26422 153.224 52.2699 -126.497 -133.096 -18.4926 114.808 -3.89496 11.9073 -89.7691 3.05706 -7.68912 0.385001 -8.59122 -7.66467 0.725052 -31.3021 -7.44728 -1.95693 -11.2894 -7.44727 -1.95693 35.3293 -74.0091 -157.887 -40.6743 20.6009 74.2213 133.228 21.1348 -101.049 3.40413 0.985617 95.9749 -54.7529 -73.3549 124.279 147.736 19.1178 -136.868 -144.184 -26.7188 -8.56681 88.9208 -18.6424 -22.5401 -5.10381 2.77144 -14.4498 163.936 34.8385 -5.05274 
-394.876 74.5198 -14.1902 167.587 28.6981 66.7169 -159.077 39.5048 -173.039 106.581 10.8305 154.151 70.9626 22.2293 7.70255 141.731 71.1997 11.0831 94.4312 -53.8866 28.2721 -78.4041 -19.0929 -2.93441 160.672 47.9405 -126.204 156.605 25.2797 120.191 -4.67279 11.8236 -89.627 3.23298 -9.18667 0.671212 -8.40559 -9.14815 1.07831 -31.195 -8.96008 -2.14386 -11.1824 -8.96008 -2.14385 35.3381 -71.9789 -159.095 -48.8844 14.5026 72.4419 99.2331 14.5582 -81.2126 -3.58618 -5.02936 113.585 -44.0836 -76.206 135.553 138.606 36.4926 -139.519 138.876 40.1773 -179.929 81.6194 -24.4968 -31.208 -3.7612 25.7865 -9.46114 162.576 52.7277 -0.681708 
-403.57 72.4062 -16.0914 169.493 26.2092 66.292 -155.686 41.777 -175.771 100.59 9.4328 152.927 68.6627 26.6432 7.42442 153.456 57.5379 -8.94884 72.6696 -56.9979 10.017 -73.2879 -19.6641 -3.96579 165.259 44.6946 -125.669 55.7026 14.8373 170.457 -5.29746 11.6636 -89.5366 3.56319 -10.3982 0.886067 -8.06631 -10.349 1.34782 -30.9297 -10.1785 -2.31383 -10.917 -10.1785 -2.31382 35.2814 -70.4756 -160.067 -59.4281 9.67652 69.9077 80.6234 3.39051 -68.3236 -6.43493 -11.0492 119.198 -35.7705 -77.3564 144.298 123.537 54.9895 -135.978 141.756 74.6245 -179.825 73.1418 -29.0817 -41.488 -6.52933 49.9891 -4.96112 157.224 72.689 7.21655 
-413.002 70.9512 -18.3328 170.558 24.0356 66.1588 -148.652 44.5101 178.478 96.6688 10.0125 152.42 64.5302 28.279 7.08622 152.472 48.8346 -14.4901 49.4555 -56.2652 -9.45348 -63.5608 -19.8645 -4.2524 166.915 42.7542 -125.633 24.2065 -5.96962 169.708 -5.76474 11.4683 -89.5124 3.96204 -11.3213 0.991483 -7.65969 -11.2665 1.4952 -30.5852 -11.089 -2.50072 -10.5725 -11.089 -2.5007 35.6271 -69.3738 -160.373 -73.1339 7.01202 66.7861 81.5656 -5.08256 -55.8479 -9.87688 -18.3572 121.508 -29.9267 -77.6216 150.538 95.3862 70.4821 -117.377 -32.9024 75.7394 -0.193484 64.4682 -31.5185 -51.039 -17.3198 69.485 5.42293 78.0402 87.2241 87.914 
-422.81 70.1359 -20.7685 170.829 22.1963 66.2652 -137.438 46.6561 169.282 95.9829 11.617 152.441 60.202 28.4829 6.51359 150.183 43.5216 -16.9901 28.2974 -52.1362 -26.5256 -48.5736 -19.598 -3.67586 165.414 42.1404 -126.443 12.1416 -12.2107 163.709 -6.09559 11.2564 -89.5584 4.38958 -11.9998 0.971437 -7.22587 -11.9453 1.5063 -30.1993 -11.7289 -2.73196 -10.1866 -11.7289 -2.73197 36.6135 -68.4935 -159.857 -90.787 7.17102 63.8601 99.1839 -3.87176 -37.4988 -18.5552 -33.1769 118.902 -25.5777 -77.6222 155.222 37.9503 76.4933 -67.0933 -28.0111 52.6067 -0.0665948 56.7065 -32.2327 -58.9403 -54.1097 80.0579 41.4944 -3.02099 78.3815 169.547 
-432.636 69.8511 -23.2344 170.372 20.677 66.5738 -123.148 46.6475 157.284 98.9169 13.7456 152.811 57.0212 28.363 5.54762 148.147 40.1832 -18.37 7.21649 -43.3332 -42.3208 -21.811 -18.1276 -1.73016 157.922 43.5984 -128.53 6.64321 -13.9856 158.786 -6.31728 11.044 -89.6692 4.81244 -12.4869 0.828202 -6.7981 -12.4382 1.3857 -29.8059 -12.1495 -3.02104 -9.79321 -12.1495 -3.02104 38.3239 -67.6595 -158.525 -111.887 10.082 62.5441 124.021 17.9987 -20.065 -43.2862 -55.2322 101.405 -21.7535 -77.7435 159.251 -6.56848 71.4026 -27.4338 -24.2503 35.1203 -0.0432706 50.2054 -31.9387 -65.2086 -116.183 79.2499 102.862 -10.6125 69.5357 177.072 
-442.177 69.9765 -25.5794 169.248 19.448 67.0616 -108.801 43.3091 144.792 105.269 16.3172 153.588 55.8345 28.4885 4.11732 146.596 38.0733 -19.183 -6.13905 -35.0528 -50.9487 0.970544 -16.5787 0.104869 150.859 44.3359 -129.901 4.31288 -14.0858 154.884 -6.45617 10.8438 -89.8351 5.204 -12.8318 0.573669 -6.40283 -12.7939 1.1474 -29.433 -12.4012 -3.37144 -9.42037 -12.4012 -3.37144 40.7118 -66.7265 -156.494 -134.063 14.2359 64.0588 -143.074 73.3475 -79.7511 -146.434 -39.2817 11.1291 -17.6751 -78.2238 163.326 -25.1837 64.6453 -11.7425 -22.0662 21.9488 -0.0363275 44.8432 -31.1207 -70.174 81.8272 -58.8621 90.6827 178.106 -74.3888 -0.0670375 
-451.186 70.4136 -27.6745 167.504 18.4743 67.7182 -97.5369 36.5297 134.169 114.541 19.6367 155.029 57.0624 28.9036 2.12098 145.517 36.8006 -19.6386 -8.83893 -36.3507 -52.0224 -0.451389 -17.1176 -0.00389498 153.766 41.7916 -129.6 3.64885 -13.5273 151.756 -6.53589 10.6676 -90.0451 5.541 -13.0775 0.223638 -6.063 -13.0548 0.809142 -29.106 -12.53 -3.78126 -9.09335 -12.53 -3.78127 43.6389 -65.5736 -153.959 -154.315 17.5039 68.1564 62.626 -46.9989 -95.4552 -19.8914 38.0788 -143.754 -12.4919 -79.2315 168.221 -34.422 59.0709 -3.91235 -21.3159 11.8359 -0.0343043 40.3883 -30.0379 -74.157 48.0656 -52.1534 59.6092 -179.644 -54.3414 2.13267 
-459.478 71.0982 -29.4269 165.166 17.7185 68.5452 -90.8784 26.8153 126.09 126.218 24.4584 157.5 60.8009 29.1924 -0.626386 144.861 36.1846 -19.8097 -11.9072 -38.3959 -53.7643 -0.376812 -17.263 0.00607638 155.362 39.7242 -129.487 3.80907 -12.7642 149.198 -6.57701 10.5266 -90.2883 5.80125 -13.2609 -0.204807 -5.80058 -13.2569 0.38967 -28.8491 -12.5761 -4.24576 -8.83644 -12.5761 -4.24577 46.9138 -64.0979 -151.164 -170.721 18.8444 73.4458 145.81 -4.56205 -73.1693 14.5866 -22.8782 -119.632 -4.67101 -80.8999 175.373 -39.2909 54.3456 0.671989 -21.5532 3.59621 -0.0340789 36.6302 -28.8197 -77.3996 41.1875 -45.8316 51.7036 -177.416 -46.9151 3.35071 
-466.953 71.9942 -30.8231 162.235 17.1408 69.5547 -89.2634 14.4072 119.921 140.132 32.1393 161.422 66.8642 28.4513 -4.37845 144.612 36.2253 -19.6699 -14.9467 -41.5491 -56.0063 -0.332129 -17.1361 0.0130429 156.418 37.9052 -129.5 4.27813 -12.0193 147.088 -6.59477 10.4304 -90.5545 5.96604 -13.4083 -0.695886 -5.63417 -13.4257 -0.0940946 -28.6826 -12.5691 -4.75805 -8.6699 -12.5691 -4.75806 50.3358 -62.2186 -148.35 177.204 18.4137 78.7751 157.243 5.93054 -84.3224 21.6311 -24.2457 -100.08 10.314 -83.2705 -170.821 -41.1109 49.3566 3.04094 -22.0803 -3.87251 -0.0340596 33.4091 -27.531 -80.0656 35.8819 -38.5653 44.9801 -175.374 -39.0889 4.17568 
-473.562 73.0398 -31.9875 158.682 16.6945 70.7686 -92.9659 -1.63498 114.977 158.209 44.8897 167.979 74.988 24.1461 -9.69564 144.806 37.1042 -19.0943 -18.0729 -45.6147 -59.0226 -0.304992 -16.756 0.0184137 157.035 36.3987 -129.703 4.69191 -11.4206 145.369 -6.59579 10.384 -90.8365 6.02568 -13.5289 -1.23668 -5.57336 -13.57 -0.628773 -28.6166 -12.522 -5.30871 -8.60392 -12.522 -5.30872 53.7425 -59.8879 -145.71 169.272 16.73 83.6547 163.189 11.128 -91.2908 23.9491 -22.4979 -89.9505 51.3514 -85.5611 -131.664 -40.2675 42.5094 3.42985 -21.8603 -11.5674 -0.0331352 30.6076 -26.2065 -82.2608 31.7708 -29.8867 38.9842 -173.301 -30.5314 4.72166 
